<svg xmlns="http://www.w3.org/2000/svg" viewBox="0 0 1600 420">
  <defs>
    <linearGradient id="sky" x1="0" y1="0" x2="1" y2="1">
      <stop offset="0" stop-color="#4a2508"/><stop offset="0.55" stop-color="#6b3a0f"/><stop offset="1" stop-color="#9c5716"/>
    </linearGradient>
    <radialGradient id="glow" cx="0.72" cy="0.42" r="0.55">
      <stop offset="0" stop-color="#eda354" stop-opacity="0.5"/><stop offset="1" stop-color="#eda354" stop-opacity="0"/>
    </radialGradient>
  </defs>
  <rect width="1600" height="420" fill="url(#sky)"/>
  <rect width="1600" height="420" fill="url(#glow)"/>
  
  <g stroke="#f0b47f" stroke-opacity="0.35" stroke-width="2">
    <line x1="120" y1="330" x2="310" y2="210"/><line x1="310" y1="210" x2="520" y2="290"/>
    <line x1="310" y1="210" x2="450" y2="90"/><line x1="450" y1="90" x2="700" y2="150"/>
    <line x1="520" y1="290" x2="700" y2="150"/><line x1="520" y1="290" x2="760" y2="350"/>
    <line x1="700" y1="150" x2="930" y2="90"/><line x1="700" y1="150" x2="980" y2="240"/>
    <line x1="760" y1="350" x2="980" y2="240"/><line x1="930" y1="90" x2="1180" y2="140"/>
    <line x1="980" y1="240" x2="1180" y2="140"/><line x1="980" y1="240" x2="1240" y2="330"/>
    <line x1="1180" y1="140" x2="1420" y2="90"/><line x1="1240" y1="330" x2="1460" y2="250"/>
    <line x1="1180" y1="140" x2="1460" y2="250"/><line x1="120" y1="330" x2="60" y2="160"/>
    <line x1="60" y1="160" x2="310" y2="210"/>
  </g>
  <g fill="#ffe0bf">
    <circle cx="120" cy="330" r="7"/><circle cx="60" cy="160" r="5"/><circle cx="310" cy="210" r="9"/>
    <circle cx="450" cy="90" r="6"/><circle cx="520" cy="290" r="8"/><circle cx="700" cy="150" r="11"/>
    <circle cx="760" cy="350" r="6"/><circle cx="930" cy="90" r="7"/><circle cx="980" cy="240" r="9"/>
    <circle cx="1180" cy="140" r="8"/><circle cx="1240" cy="330" r="6"/><circle cx="1420" cy="90" r="5"/>
    <circle cx="1460" cy="250" r="7"/>
  </g>
  <g fill="#ffffff" opacity="0.9">
    <circle cx="700" cy="150" r="4.5"/><circle cx="980" cy="240" r="3.5"/><circle cx="310" cy="210" r="3.5"/>
  </g>
  <g transform="translate(1120,215)" stroke="#ffedd9" stroke-opacity="0.85" fill="none" stroke-width="12" stroke-linejoin="round">
          <rect x="-85" y="-35" width="170" height="130" rx="20" fill="#ffffff" fill-opacity="0.06"/>
          <path d="M -48 -35 V -70 A 48 48 0 0 1 48 -70 V -35" fill="none"/>
          <circle cx="0" cy="20" r="16" fill="#ffedd9" fill-opacity="0.85" stroke="none"/>
          <line x1="0" y1="32" x2="0" y2="58" stroke-width="14" stroke-linecap="round"/></g>
  <rect y="270" width="1600" height="150" fill="#381c06" opacity="0.35"/>
</svg>