<svg xmlns="http://www.w3.org/2000/svg" viewBox="0 0 1600 420">
  <defs>
    <linearGradient id="sky" x1="0" y1="0" x2="1" y2="1">
      <stop offset="0" stop-color="#0d2b52"/><stop offset="0.55" stop-color="#123f77"/><stop offset="1" stop-color="#1a5da0"/>
    </linearGradient>
    <radialGradient id="glow" cx="0.72" cy="0.42" r="0.55">
      <stop offset="0" stop-color="#63b3ed" stop-opacity="0.5"/><stop offset="1" stop-color="#63b3ed" stop-opacity="0"/>
    </radialGradient>
  </defs>
  <rect width="1600" height="420" fill="url(#sky)"/>
  <rect width="1600" height="420" fill="url(#glow)"/>
  
  <g stroke="#7fb8e8" stroke-opacity="0.35" stroke-width="2">
    <line x1="120" y1="330" x2="310" y2="210"/><line x1="310" y1="210" x2="520" y2="290"/>
    <line x1="310" y1="210" x2="450" y2="90"/><line x1="450" y1="90" x2="700" y2="150"/>
    <line x1="520" y1="290" x2="700" y2="150"/><line x1="520" y1="290" x2="760" y2="350"/>
    <line x1="700" y1="150" x2="930" y2="90"/><line x1="700" y1="150" x2="980" y2="240"/>
    <line x1="760" y1="350" x2="980" y2="240"/><line x1="930" y1="90" x2="1180" y2="140"/>
    <line x1="980" y1="240" x2="1180" y2="140"/><line x1="980" y1="240" x2="1240" y2="330"/>
    <line x1="1180" y1="140" x2="1420" y2="90"/><line x1="1240" y1="330" x2="1460" y2="250"/>
    <line x1="1180" y1="140" x2="1460" y2="250"/><line x1="120" y1="330" x2="60" y2="160"/>
    <line x1="60" y1="160" x2="310" y2="210"/>
  </g>
  <g fill="#bfe0fb">
    <circle cx="120" cy="330" r="7"/><circle cx="60" cy="160" r="5"/><circle cx="310" cy="210" r="9"/>
    <circle cx="450" cy="90" r="6"/><circle cx="520" cy="290" r="8"/><circle cx="700" cy="150" r="11"/>
    <circle cx="760" cy="350" r="6"/><circle cx="930" cy="90" r="7"/><circle cx="980" cy="240" r="9"/>
    <circle cx="1180" cy="140" r="8"/><circle cx="1240" cy="330" r="6"/><circle cx="1420" cy="90" r="5"/>
    <circle cx="1460" cy="250" r="7"/>
  </g>
  <g fill="#ffffff" opacity="0.9">
    <circle cx="700" cy="150" r="4.5"/><circle cx="980" cy="240" r="3.5"/><circle cx="310" cy="210" r="3.5"/>
  </g>
  <g transform="translate(1120,200)" stroke="#dbeafe" stroke-opacity="0.85" fill="none" stroke-width="12">
          <circle cx="-45" cy="-25" r="80" fill="#ffffff" fill-opacity="0.05"/>
          <circle cx="45" cy="-25" r="80" fill="#ffffff" fill-opacity="0.05"/>
          <circle cx="0" cy="50" r="80" fill="#ffffff" fill-opacity="0.05"/></g>
  <rect y="270" width="1600" height="150" fill="#0a1f3c" opacity="0.35"/>
</svg>